<?xml version="1.0" encoding="UTF-8"?>
<svg width="63px" height="8px" viewBox="0 0 63 8" version="1.1" xmlns="http://www.w3.org/2000/svg" xmlns:xlink="http://www.w3.org/1999/xlink">
    <!-- Generator: Sketch 51.2 (57519) - http://www.bohemiancoding.com/sketch -->
    <title>a:active</title>
    <desc>Created with Sketch.</desc>
    <defs></defs>
    <g id="Library" stroke="none" stroke-width="1" fill="none" fill-rule="evenodd">
        <g id="Components" transform="translate(-876.000000, -732.000000)" fill="#4A90ED">
            <path d="M880.930664,739 L876.268066,739 L876.268066,737.857422 L877.836914,736.270996 C878.285158,735.802244 878.578124,735.482179 878.71582,735.310791 C878.853516,735.139403 878.949463,734.992188 879.003662,734.869141 C879.057862,734.746093 879.084961,734.617188 879.084961,734.482422 C879.084961,734.315429 879.030762,734.183594 878.922363,734.086914 C878.813964,733.990234 878.661622,733.941895 878.465332,733.941895 C878.263183,733.941895 878.058839,733.999755 877.852295,734.115479 C877.645751,734.231202 877.412111,734.401854 877.151367,734.627441 L876.197754,733.51123 C876.52881,733.215331 876.807128,733.003663 877.032715,732.876221 C877.258302,732.748779 877.503661,732.651368 877.768799,732.583984 C878.033937,732.516601 878.33203,732.48291 878.663086,732.48291 C879.079104,732.48291 879.450438,732.556152 879.7771,732.702637 C880.103761,732.849122 880.357177,733.05786 880.537354,733.328857 C880.71753,733.599855 880.807617,733.903807 880.807617,734.240723 C880.807617,734.492677 880.776123,734.725585 880.713135,734.939453 C880.650146,735.153321 880.552735,735.363524 880.420898,735.570068 C880.289062,735.776612 880.114015,735.994139 879.895752,736.222656 C879.677489,736.451173 879.212406,736.884762 878.500488,737.523438 L878.500488,737.567383 L880.930664,737.567383 L880.930664,739 Z M887.866833,735.796387 C887.866833,736.933111 887.676405,737.765866 887.295544,738.294678 C886.914682,738.823489 886.33168,739.087891 885.54652,739.087891 C884.778938,739.087891 884.200331,738.81177 883.81068,738.259521 C883.42103,737.707273 883.226208,736.886236 883.226208,735.796387 C883.226208,734.653803 883.416636,733.815921 883.797497,733.282715 C884.178358,732.749509 884.76136,732.48291 885.54652,732.48291 C886.311173,732.48291 886.889048,732.760495 887.280163,733.315674 C887.671278,733.870852 887.866833,734.697748 887.866833,735.796387 Z M884.953259,735.796387 C884.953259,736.522953 884.998668,737.02246 885.089489,737.294922 C885.18031,737.567384 885.332652,737.703613 885.54652,737.703613 C885.763318,737.703613 885.916393,737.56299 886.005749,737.281738 C886.095105,737.000487 886.139782,736.505375 886.139782,735.796387 C886.139782,735.084469 886.094372,734.585695 886.003551,734.300049 C885.912731,734.014403 885.760389,733.871582 885.54652,733.871582 C885.332652,733.871582 885.18031,734.009276 885.089489,734.284668 C884.998668,734.56006 884.953259,735.063961 884.953259,735.796387 Z M894.750267,739 L890.087669,739 L890.087669,737.857422 L891.656517,736.270996 C892.104761,735.802244 892.397727,735.482179 892.535423,735.310791 C892.673119,735.139403 892.769066,734.992188 892.823265,734.869141 C892.877465,734.746093 892.904564,734.617188 892.904564,734.482422 C892.904564,734.315429 892.850365,734.183594 892.741966,734.086914 C892.633567,733.990234 892.481225,733.941895 892.284935,733.941895 C892.082786,733.941895 891.878442,733.999755 891.671898,734.115479 C891.465354,734.231202 891.231714,734.401854 890.97097,734.627441 L890.017357,733.51123 C890.348413,733.215331 890.626731,733.003663 890.852318,732.876221 C891.077905,732.748779 891.323264,732.651368 891.588402,732.583984 C891.85354,732.516601 892.151633,732.48291 892.482689,732.48291 C892.898707,732.48291 893.270041,732.556152 893.596703,732.702637 C893.923364,732.849122 894.17678,733.05786 894.356957,733.328857 C894.537133,733.599855 894.62722,733.903807 894.62722,734.240723 C894.62722,734.492677 894.595726,734.725585 894.532738,734.939453 C894.469749,735.153321 894.372338,735.363524 894.240501,735.570068 C894.108665,735.776612 893.933618,735.994139 893.715355,736.222656 C893.497092,736.451173 893.032009,736.884762 892.320091,737.523438 L892.320091,737.567383 L894.750267,737.567383 L894.750267,739 Z M901.660069,739 L896.997471,739 L896.997471,737.857422 L898.566319,736.270996 C899.014563,735.802244 899.307529,735.482179 899.445225,735.310791 C899.582921,735.139403 899.678867,734.992188 899.733067,734.869141 C899.787266,734.746093 899.814365,734.617188 899.814365,734.482422 C899.814365,734.315429 899.760167,734.183594 899.651768,734.086914 C899.543369,733.990234 899.391027,733.941895 899.194737,733.941895 C898.992587,733.941895 898.788243,733.999755 898.581699,734.115479 C898.375155,734.231202 898.141515,734.401854 897.880772,734.627441 L896.927158,733.51123 C897.258215,733.215331 897.536532,733.003663 897.762119,732.876221 C897.987706,732.748779 898.233065,732.651368 898.498203,732.583984 C898.763341,732.516601 899.061434,732.48291 899.39249,732.48291 C899.808508,732.48291 900.179842,732.556152 900.506504,732.702637 C900.833166,732.849122 901.086581,733.05786 901.266758,733.328857 C901.446935,733.599855 901.537022,733.903807 901.537022,734.240723 C901.537022,734.492677 901.505528,734.725585 901.442539,734.939453 C901.379551,735.153321 901.28214,735.363524 901.150303,735.570068 C901.018466,735.776612 900.843419,735.994139 900.625156,736.222656 C900.406894,736.451173 899.94181,736.884762 899.229893,737.523438 L899.229893,737.567383 L901.660069,737.567383 L901.660069,739 Z M907.802425,737.272949 L907.802425,735.901855 L910.285336,735.901855 L910.285336,737.272949 L907.802425,737.272949 Z M916.392536,736.28418 C916.392536,735.387691 916.520709,734.661868 916.777058,734.106689 C917.033407,733.551511 917.411333,733.142091 917.910847,732.878418 C918.410361,732.614745 919.026322,732.48291 919.758747,732.48291 C920.019491,732.48291 920.324175,732.507812 920.67281,732.557617 L920.67281,733.915527 C920.37984,733.859863 920.061972,733.832031 919.719196,733.832031 C919.139115,733.832031 918.706991,733.959471 918.42281,734.214355 C918.138629,734.46924 917.983357,734.885251 917.956989,735.462402 L918.009724,735.462402 C918.273397,734.964353 918.696733,734.715332 919.279743,734.715332 C919.851035,734.715332 920.294146,734.899168 920.609089,735.266846 C920.924032,735.634523 921.081501,736.146481 921.081501,736.802734 C921.081501,737.508793 920.882284,738.06616 920.483845,738.474854 C920.085405,738.883547 919.52877,739.087891 918.813923,739.087891 C918.05513,739.087891 917.461874,738.841799 917.034138,738.349609 C916.606401,737.857419 916.392536,737.16895 916.392536,736.28418 Z M918.774372,737.712402 C918.958943,737.712402 919.109088,737.642823 919.224812,737.503662 C919.340535,737.364501 919.398396,737.14258 919.398396,736.837891 C919.398396,736.316404 919.196249,736.055664 918.79195,736.055664 C918.592731,736.055664 918.430867,736.123046 918.306355,736.257812 C918.181842,736.392579 918.119587,736.55664 918.119587,736.75 C918.119587,737.031251 918.179645,737.261962 918.299763,737.442139 C918.419881,737.622315 918.578082,737.712402 918.774372,737.712402 Z M927.925385,739 L923.262787,739 L923.262787,737.857422 L924.831635,736.270996 C925.279879,735.802244 925.572845,735.482179 925.710541,735.310791 C925.848237,735.139403 925.944183,734.992188 925.998383,734.869141 C926.052582,734.746093 926.079682,734.617188 926.079682,734.482422 C926.079682,734.315429 926.025483,734.183594 925.917084,734.086914 C925.808685,733.990234 925.656343,733.941895 925.460053,733.941895 C925.257903,733.941895 925.05356,733.999755 924.847016,734.115479 C924.640472,734.231202 924.406831,734.401854 924.146088,734.627441 L923.192475,733.51123 C923.523531,733.215331 923.801848,733.003663 924.027435,732.876221 C924.253023,732.748779 924.498381,732.651368 924.763519,732.583984 C925.028657,732.516601 925.32675,732.48291 925.657807,732.48291 C926.073824,732.48291 926.445158,732.556152 926.77182,732.702637 C927.098482,732.849122 927.351897,733.05786 927.532074,733.328857 C927.712251,733.599855 927.802338,733.903807 927.802338,734.240723 C927.802338,734.492677 927.770844,734.725585 927.707855,734.939453 C927.644867,735.153321 927.547456,735.363524 927.415619,735.570068 C927.283782,735.776612 927.108735,735.994139 926.890473,736.222656 C926.67221,736.451173 926.207126,736.884762 925.495209,737.523438 L925.495209,737.567383 L927.925385,737.567383 L927.925385,739 Z M931.389874,734.508789 C931.389874,734.845705 931.417705,735.088866 931.47337,735.238281 C931.529034,735.387696 931.612529,735.462402 931.723858,735.462402 C931.835187,735.462402 931.91795,735.389161 931.972149,735.242676 C932.026349,735.096191 932.053448,734.851564 932.053448,734.508789 C932.053448,734.171873 932.026349,733.928712 931.972149,733.779297 C931.91795,733.629882 931.835187,733.555176 931.723858,733.555176 C931.6096,733.555176 931.525372,733.631347 931.471172,733.783691 C931.416973,733.936036 931.389874,734.177733 931.389874,734.508789 Z M933.380596,734.491211 C933.380596,735.135745 933.235578,735.63452 932.945538,735.987549 C932.655497,736.340578 932.242415,736.51709 931.70628,736.51709 C931.202371,736.51709 930.803205,736.334719 930.50877,735.969971 C930.214335,735.605223 930.06712,735.112308 930.06712,734.491211 C930.06712,733.846676 930.210673,733.350832 930.497784,733.003662 C930.784895,732.656492 931.187723,732.48291 931.70628,732.48291 C932.218978,732.48291 932.6262,732.663084 932.92796,733.023438 C933.229719,733.383791 933.380596,733.873044 933.380596,734.491211 Z M936.58421,732.575195 L933.020245,739 L931.715069,739 L935.279034,732.575195 L936.58421,732.575195 Z M936.276592,737.066406 C936.276592,737.403322 936.304424,737.646484 936.360088,737.795898 C936.415753,737.945313 936.499248,738.02002 936.610577,738.02002 C936.736554,738.02002 936.823711,737.934327 936.872051,737.762939 C936.920391,737.591552 936.944561,737.359376 936.944561,737.066406 C936.944561,736.773436 936.920391,736.541261 936.872051,736.369873 C936.823711,736.198485 936.736554,736.112793 936.610577,736.112793 C936.496318,736.112793 936.412091,736.188964 936.357891,736.341309 C936.303692,736.493653 936.276592,736.73535 936.276592,737.066406 Z M938.267315,737.048828 C938.267315,737.690433 938.121565,738.187742 937.830059,738.540771 C937.538554,738.893801 937.126204,739.070312 936.592999,739.070312 C936.08909,739.070312 935.689924,738.887941 935.395489,738.523193 C935.101054,738.158445 934.953838,737.666995 934.953838,737.048828 C934.953838,736.404294 935.097392,735.908449 935.384503,735.561279 C935.671613,735.21411 936.074441,735.040527 936.592999,735.040527 C937.105697,735.040527 937.512919,735.220701 937.814678,735.581055 C938.116438,735.941408 938.267315,736.430661 938.267315,737.048828 Z" id="a:active"></path>
        </g>
    </g>
</svg>