<?xml version="1.0" encoding="UTF-8"?>
<svg width="76px" height="10px" viewBox="0 0 76 10" version="1.1" xmlns="http://www.w3.org/2000/svg" xmlns:xlink="http://www.w3.org/1999/xlink">
    <!-- Generator: Sketch 51.2 (57519) - http://www.bohemiancoding.com/sketch -->
    <title>a:active</title>
    <desc>Created with Sketch.</desc>
    <defs></defs>
    <g id="Library" stroke="none" stroke-width="1" fill="none" fill-rule="evenodd">
        <g id="Components" transform="translate(-333.000000, -730.000000)" fill="#3D96F7">
            <path d="M339.574219,739 L333.357422,739 L333.357422,737.476562 L335.449219,735.361328 C336.046878,734.736325 336.437499,734.309571 336.621094,734.081055 C336.804688,733.852538 336.932617,733.656251 337.004883,733.492188 C337.077149,733.328124 337.113281,733.156251 337.113281,732.976562 C337.113281,732.753905 337.041016,732.578126 336.896484,732.449219 C336.751952,732.320312 336.548829,732.255859 336.287109,732.255859 C336.017577,732.255859 335.745119,732.333007 335.469727,732.487305 C335.194335,732.641602 334.882814,732.869139 334.535156,733.169922 L333.263672,731.681641 C333.70508,731.287107 334.07617,731.004884 334.376953,730.834961 C334.677736,730.665038 335.004881,730.535157 335.358398,730.445312 C335.711916,730.355468 336.109373,730.310547 336.550781,730.310547 C337.105472,730.310547 337.600584,730.408202 338.036133,730.603516 C338.471682,730.798829 338.809569,731.077147 339.049805,731.438477 C339.29004,731.799806 339.410156,732.205076 339.410156,732.654297 C339.410156,732.990236 339.368164,733.30078 339.28418,733.585938 C339.200195,733.871095 339.070313,734.151366 338.894531,734.426758 C338.718749,734.70215 338.485353,734.992186 338.194336,735.296875 C337.903319,735.601564 337.283208,736.179683 336.333984,737.03125 L336.333984,737.089844 L339.574219,737.089844 L339.574219,739 Z M347.973958,734.728516 C347.973958,736.244148 347.720054,737.354489 347.212239,738.05957 C346.704424,738.764652 345.927088,739.117188 344.880208,739.117188 C343.856765,739.117188 343.085289,738.749027 342.565755,738.012695 C342.046221,737.276364 341.786458,736.181648 341.786458,734.728516 C341.786458,733.205071 342.040362,732.087894 342.548177,731.376953 C343.055992,730.666012 343.833328,730.310547 344.880208,730.310547 C345.899744,730.310547 346.670244,730.68066 347.191731,731.420898 C347.713218,732.161137 347.973958,733.263665 347.973958,734.728516 Z M344.089192,734.728516 C344.089192,735.69727 344.149739,736.363279 344.270833,736.726562 C344.391927,737.089846 344.59505,737.271484 344.880208,737.271484 C345.169272,737.271484 345.373371,737.083986 345.492513,736.708984 C345.611654,736.333983 345.671224,735.673833 345.671224,734.728516 C345.671224,733.779292 345.610677,733.11426 345.489583,732.733398 C345.368489,732.352537 345.165366,732.162109 344.880208,732.162109 C344.59505,732.162109 344.391927,732.345701 344.270833,732.712891 C344.149739,733.08008 344.089192,733.751948 344.089192,734.728516 Z M356.303385,739 L350.086588,739 L350.086588,737.476562 L352.178385,735.361328 C352.776044,734.736325 353.166665,734.309571 353.35026,734.081055 C353.533854,733.852538 353.661783,733.656251 353.734049,733.492188 C353.806315,733.328124 353.842447,733.156251 353.842447,732.976562 C353.842447,732.753905 353.770182,732.578126 353.62565,732.449219 C353.481118,732.320312 353.277995,732.255859 353.016275,732.255859 C352.746743,732.255859 352.474285,732.333007 352.198893,732.487305 C351.923501,732.641602 351.61198,732.869139 351.264322,733.169922 L349.992838,731.681641 C350.434246,731.287107 350.805336,731.004884 351.106119,730.834961 C351.406902,730.665038 351.734047,730.535157 352.087564,730.445312 C352.441082,730.355468 352.838539,730.310547 353.279947,730.310547 C353.834638,730.310547 354.32975,730.408202 354.765299,730.603516 C355.200848,730.798829 355.538735,731.077147 355.778971,731.438477 C356.019206,731.799806 356.139322,732.205076 356.139322,732.654297 C356.139322,732.990236 356.09733,733.30078 356.013346,733.585938 C355.929361,733.871095 355.799479,734.151366 355.623697,734.426758 C355.447915,734.70215 355.214519,734.992186 354.923502,735.296875 C354.632485,735.601564 354.012374,736.179683 353.06315,737.03125 L353.06315,737.089844 L356.303385,737.089844 L356.303385,739 Z M364.667968,739 L358.451171,739 L358.451171,737.476562 L360.542968,735.361328 C361.140627,734.736325 361.531248,734.309571 361.714843,734.081055 C361.898437,733.852538 362.026366,733.656251 362.098632,733.492188 C362.170898,733.328124 362.20703,733.156251 362.20703,732.976562 C362.20703,732.753905 362.134765,732.578126 361.990233,732.449219 C361.845701,732.320312 361.642578,732.255859 361.380858,732.255859 C361.111326,732.255859 360.838868,732.333007 360.563476,732.487305 C360.288084,732.641602 359.976563,732.869139 359.628905,733.169922 L358.357421,731.681641 C358.798829,731.287107 359.169919,731.004884 359.470702,730.834961 C359.771485,730.665038 360.09863,730.535157 360.452147,730.445312 C360.805665,730.355468 361.203122,730.310547 361.64453,730.310547 C362.199221,730.310547 362.694333,730.408202 363.129882,730.603516 C363.565431,730.798829 363.903318,731.077147 364.143554,731.438477 C364.383789,731.799806 364.503905,732.205076 364.503905,732.654297 C364.503905,732.990236 364.461913,733.30078 364.377929,733.585938 C364.293944,733.871095 364.164062,734.151366 363.98828,734.426758 C363.812498,734.70215 363.579102,734.992186 363.288085,735.296875 C362.997068,735.601564 362.376957,736.179683 361.427733,737.03125 L361.427733,737.089844 L364.667968,737.089844 L364.667968,739 Z M371.160806,736.697266 L371.160806,734.869141 L374.471352,734.869141 L374.471352,736.697266 L371.160806,736.697266 Z M380.917315,735.378906 C380.917315,734.183588 381.088212,733.215824 381.430011,732.475586 C381.771809,731.735348 382.27571,731.189455 382.941729,730.837891 C383.607748,730.486326 384.429029,730.310547 385.405597,730.310547 C385.753255,730.310547 386.159501,730.34375 386.624347,730.410156 L386.624347,732.220703 C386.23372,732.146484 385.809896,732.109375 385.352862,732.109375 C384.579421,732.109375 384.003255,732.279295 383.624347,732.619141 C383.245438,732.958986 383.038409,733.513668 383.003253,734.283203 L383.073565,734.283203 C383.42513,733.619137 383.989577,733.287109 384.766925,733.287109 C385.528647,733.287109 386.119462,733.532224 386.539386,734.022461 C386.95931,734.512698 387.169268,735.195308 387.169268,736.070312 C387.169268,737.011723 386.903646,737.75488 386.372393,738.299805 C385.841141,738.844729 385.098961,739.117188 384.145831,739.117188 C383.134107,739.117188 382.343099,738.789066 381.772784,738.132812 C381.202469,737.476559 380.917315,736.5586 380.917315,735.378906 Z M384.093097,737.283203 C384.339192,737.283203 384.539385,737.190431 384.693683,737.004883 C384.84798,736.819335 384.925128,736.52344 384.925128,736.117188 C384.925128,735.421872 384.655599,735.074219 384.116534,735.074219 C383.850908,735.074219 383.63509,735.164062 383.469073,735.34375 C383.303057,735.523438 383.22005,735.742186 383.22005,736 C383.22005,736.375002 383.300127,736.682616 383.460284,736.922852 C383.620441,737.163087 383.831377,737.283203 384.093097,737.283203 Z M395.445961,739 L389.229164,739 L389.229164,737.476562 L391.320961,735.361328 C391.91862,734.736325 392.309241,734.309571 392.492836,734.081055 C392.676431,733.852538 392.804359,733.656251 392.876625,733.492188 C392.948891,733.328124 392.985023,733.156251 392.985023,732.976562 C392.985023,732.753905 392.912758,732.578126 392.768226,732.449219 C392.623695,732.320312 392.420572,732.255859 392.158851,732.255859 C391.889319,732.255859 391.616861,732.333007 391.341469,732.487305 C391.066077,732.641602 390.754556,732.869139 390.406898,733.169922 L389.135414,731.681641 C389.576822,731.287107 389.947912,731.004884 390.248695,730.834961 C390.549478,730.665038 390.876623,730.535157 391.230141,730.445312 C391.583658,730.355468 391.981115,730.310547 392.422523,730.310547 C392.977214,730.310547 393.472326,730.408202 393.907875,730.603516 C394.343424,730.798829 394.681311,731.077147 394.921547,731.438477 C395.161782,731.799806 395.281898,732.205076 395.281898,732.654297 C395.281898,732.990236 395.239907,733.30078 395.155922,733.585938 C395.071937,733.871095 394.942056,734.151366 394.766273,734.426758 C394.590491,734.70215 394.357095,734.992186 394.066078,735.296875 C393.775061,735.601564 393.15495,736.179683 392.205726,737.03125 L392.205726,737.089844 L395.445961,737.089844 L395.445961,739 Z M399.216794,733.011719 C399.216794,733.46094 399.253903,733.785155 399.328122,733.984375 C399.402341,734.183595 399.513668,734.283203 399.662106,734.283203 C399.810545,734.283203 399.920895,734.185548 399.993161,733.990234 C400.065427,733.794921 400.10156,733.468752 400.10156,733.011719 C400.10156,732.562498 400.065427,732.238282 399.993161,732.039062 C399.920895,731.839843 399.810545,731.740234 399.662106,731.740234 C399.509762,731.740234 399.397458,731.841796 399.325192,732.044922 C399.252926,732.248048 399.216794,732.57031 399.216794,733.011719 Z M401.871091,732.988281 C401.871091,733.847661 401.677733,734.512693 401.291013,734.983398 C400.904292,735.454104 400.353516,735.689453 399.638669,735.689453 C398.966791,735.689453 398.434569,735.446291 398.041989,734.959961 C397.649409,734.47363 397.453122,733.81641 397.453122,732.988281 C397.453122,732.128902 397.644526,731.467776 398.027341,731.004883 C398.410155,730.54199 398.947259,730.310547 399.638669,730.310547 C400.322266,730.310547 400.865229,730.550779 401.267575,731.03125 C401.669921,731.511721 401.871091,732.164058 401.871091,732.988281 Z M406.142575,730.433594 L401.390622,739 L399.650388,739 L404.402341,730.433594 L406.142575,730.433594 Z M405.732419,736.421875 C405.732419,736.871096 405.769528,737.195312 405.843747,737.394531 C405.917966,737.593751 406.029293,737.693359 406.177731,737.693359 C406.345701,737.693359 406.461911,737.579103 406.526364,737.350586 C406.590818,737.122069 406.623044,736.812502 406.623044,736.421875 C406.623044,736.031248 406.590818,735.721681 406.526364,735.493164 C406.461911,735.264647 406.345701,735.150391 406.177731,735.150391 C406.025387,735.150391 405.913083,735.251952 405.840817,735.455078 C405.768551,735.658204 405.732419,735.980467 405.732419,736.421875 Z M408.386716,736.398438 C408.386716,737.253911 408.192382,737.91699 407.803708,738.387695 C407.415034,738.858401 406.865235,739.09375 406.154294,739.09375 C405.482416,739.09375 404.950194,738.850588 404.557614,738.364258 C404.165034,737.877927 403.968747,737.22266 403.968747,736.398438 C403.968747,735.539058 404.160151,734.877932 404.542966,734.415039 C404.92578,733.952146 405.462884,733.720703 406.154294,733.720703 C406.837891,733.720703 407.380854,733.960935 407.7832,734.441406 C408.185546,734.921877 408.386716,735.574215 408.386716,736.398438 Z" id="a:active"></path>
        </g>
    </g>
</svg>