<?xml version="1.0" encoding="UTF-8"?>
<svg width="93px" height="20px" viewBox="0 0 93 20" version="1.1" xmlns="http://www.w3.org/2000/svg" xmlns:xlink="http://www.w3.org/1999/xlink">
    <!-- Generator: Sketch 51.2 (57519) - http://www.bohemiancoding.com/sketch -->
    <title>Group 2</title>
    <desc>Created with Sketch.</desc>
    <defs>
        <filter x="-18.0%" y="-5.6%" width="136.0%" height="128.8%" filterUnits="objectBoundingBox" id="filter-1">
            <feOffset dx="0" dy="1" in="SourceAlpha" result="shadowOffsetOuter1"></feOffset>
            <feGaussianBlur stdDeviation="0.4" in="shadowOffsetOuter1" result="shadowBlurOuter1"></feGaussianBlur>
            <feColorMatrix values="0 0 0 0 0   0 0 0 0 0   0 0 0 0 0  0 0 0 0.5 0" type="matrix" in="shadowBlurOuter1" result="shadowMatrixOuter1"></feColorMatrix>
            <feMerge>
                <feMergeNode in="shadowMatrixOuter1"></feMergeNode>
                <feMergeNode in="SourceGraphic"></feMergeNode>
            </feMerge>
        </filter>
    </defs>
    <g id="Library" stroke="none" stroke-width="1" fill="none" fill-rule="evenodd">
        <g id="Components" transform="translate(-510.000000, -735.000000)">
            <g id="Group-2" transform="translate(510.000000, 735.000000)">
                <path d="M6.65898395,9 L0.442187071,9 L0.442187071,7.4765625 L2.53398395,5.36132812 C3.13164318,4.736325 3.52226428,4.30957146 3.70585895,4.08105469 C3.88945361,3.85253792 4.01738202,3.65625082 4.08964801,3.4921875 C4.16191399,3.32812418 4.19804645,3.1562509 4.19804645,2.9765625 C4.19804645,2.75390514 4.12578154,2.57812564 3.98124957,2.44921875 C3.8367176,2.32031186 3.63359463,2.25585938 3.37187457,2.25585938 C3.10234197,2.25585938 2.82988376,2.33300704 2.55449176,2.48730469 C2.27909976,2.64160233 1.96757943,2.86913912 1.61992145,3.16992188 L0.348437071,1.68164062 C0.789845528,1.2871074 1.16093557,1.00488366 1.46171832,0.834960938 C1.76250107,0.665038213 2.08964624,0.535156699 2.44316363,0.4453125 C2.79668103,0.355468301 3.19413799,0.310546875 3.63554645,0.310546875 C4.19023672,0.310546875 4.68534896,0.408202148 5.12089801,0.603515625 C5.55644706,0.798829102 5.89433431,1.07714663 6.13456988,1.43847656 C6.37480546,1.79980649 6.49492145,2.20507588 6.49492145,2.65429688 C6.49492145,2.99023605 6.45292968,3.30077982 6.36894488,3.5859375 C6.28496009,3.87109518 6.15507857,4.15136581 5.97929645,4.42675781 C5.80351432,4.70214981 5.57011821,4.99218598 5.27910113,5.296875 C4.98808405,5.60156402 4.36797307,6.17968324 3.41874957,7.03125 L3.41874957,7.08984375 L6.65898395,7.08984375 L6.65898395,9 Z M15.0553902,4.72851562 C15.0553902,6.2441482 14.8014865,7.35448866 14.2936715,8.05957031 C13.7858564,8.76465196 13.0085205,9.1171875 11.9616402,9.1171875 C10.9381976,9.1171875 10.166721,8.74902712 9.64718711,8.01269531 C9.12765327,7.27636351 8.86789024,6.18164789 8.86789024,4.72851562 C8.86789024,3.20507051 9.12179395,2.08789418 9.62960899,1.37695312 C10.137424,0.66601207 10.91476,0.310546875 11.9616402,0.310546875 C12.9811766,0.310546875 13.7516767,0.680660361 14.2731637,1.42089844 C14.7946507,2.16113651 15.0553902,3.26366455 15.0553902,4.72851562 Z M11.1706246,4.72851562 C11.1706246,5.69727047 11.2311709,6.36327943 11.3522652,6.7265625 C11.4733596,7.08984557 11.6764826,7.27148438 11.9616402,7.27148438 C12.2507042,7.27148438 12.4548037,7.08398625 12.5739449,6.70898438 C12.6930861,6.3339825 12.7526559,5.67383285 12.7526559,4.72851562 C12.7526559,3.77929213 12.6921096,3.11425972 12.5710152,2.73339844 C12.4499209,2.35253716 12.2467979,2.16210938 11.9616402,2.16210938 C11.6764826,2.16210938 11.4733596,2.34570129 11.3522652,2.71289062 C11.2311709,3.08007996 11.1706246,3.75194824 11.1706246,4.72851562 Z M23.381484,9 L17.1646872,9 L17.1646872,7.4765625 L19.256484,5.36132812 C19.8541433,4.736325 20.2447644,4.30957146 20.428359,4.08105469 C20.6119537,3.85253792 20.7398821,3.65625082 20.8121481,3.4921875 C20.8844141,3.32812418 20.9205465,3.1562509 20.9205465,2.9765625 C20.9205465,2.75390514 20.8482816,2.57812564 20.7037497,2.44921875 C20.5592177,2.32031186 20.3560947,2.25585938 20.0943747,2.25585938 C19.8248421,2.25585938 19.5523838,2.33300704 19.2769918,2.48730469 C19.0015998,2.64160233 18.6900795,2.86913912 18.3424215,3.16992188 L17.0709372,1.68164062 C17.5123456,1.2871074 17.8834357,1.00488366 18.1842184,0.834960938 C18.4850012,0.665038213 18.8121463,0.535156699 19.1656637,0.4453125 C19.5191811,0.355468301 19.9166381,0.310546875 20.3580465,0.310546875 C20.9127368,0.310546875 21.407849,0.408202148 21.8433981,0.603515625 C22.2789471,0.798829102 22.6168344,1.07714663 22.85707,1.43847656 C23.0973055,1.79980649 23.2174215,2.20507588 23.2174215,2.65429688 C23.2174215,2.99023605 23.1754298,3.30077982 23.091445,3.5859375 C23.0074602,3.87109518 22.8775787,4.15136581 22.7017965,4.42675781 C22.5260144,4.70214981 22.2926183,4.99218598 22.0016012,5.296875 C21.7105841,5.60156402 21.0904732,6.17968324 20.1412497,7.03125 L20.1412497,7.08984375 L23.381484,7.08984375 L23.381484,9 Z M31.7427341,9 L25.5259372,9 L25.5259372,7.4765625 L27.6177341,5.36132812 C28.2153933,4.736325 28.6060144,4.30957146 28.7896091,4.08105469 C28.9732037,3.85253792 29.1011322,3.65625082 29.1733981,3.4921875 C29.2456641,3.32812418 29.2817966,3.1562509 29.2817966,2.9765625 C29.2817966,2.75390514 29.2095317,2.57812564 29.0649997,2.44921875 C28.9204677,2.32031186 28.7173448,2.25585938 28.4556247,2.25585938 C28.1860921,2.25585938 27.9136339,2.33300704 27.6382419,2.48730469 C27.3628499,2.64160233 27.0513296,2.86913912 26.7036716,3.16992188 L25.4321872,1.68164062 C25.8735957,1.2871074 26.2446857,1.00488366 26.5454684,0.834960938 C26.8462512,0.665038213 27.1733964,0.535156699 27.5269138,0.4453125 C27.8804312,0.355468301 28.2778881,0.310546875 28.7192966,0.310546875 C29.2739868,0.310546875 29.7690991,0.408202148 30.2046481,0.603515625 C30.6401972,0.798829102 30.9780844,1.07714663 31.21832,1.43847656 C31.4585556,1.79980649 31.5786716,2.20507588 31.5786716,2.65429688 C31.5786716,2.99023605 31.5366798,3.30077982 31.452695,3.5859375 C31.3687102,3.87109518 31.2388287,4.15136581 31.0630466,4.42675781 C30.8872644,4.70214981 30.6538683,4.99218598 30.3628513,5.296875 C30.0718342,5.60156402 29.4517232,6.17968324 28.5024997,7.03125 L28.5024997,7.08984375 L31.7427341,7.08984375 L31.7427341,9 Z M38.228906,6.69726562 L38.228906,4.86914062 L41.5394529,4.86914062 L41.5394529,6.69726562 L38.228906,6.69726562 Z M47.9787499,5.37890625 C47.9787499,4.18358777 48.1496466,3.21582401 48.4914452,2.47558594 C48.8332438,1.73534786 49.337145,1.18945488 50.0031639,0.837890625 C50.6691829,0.486326367 51.4904637,0.310546875 52.4670311,0.310546875 C52.8146891,0.310546875 53.220935,0.343749668 53.6857811,0.41015625 L53.6857811,2.22070312 C53.2951542,2.146484 52.8713303,2.109375 52.4142967,2.109375 C51.6408554,2.109375 51.0646893,2.27929518 50.6857811,2.61914062 C50.306873,2.95898607 50.0998438,3.51366803 50.0646874,4.28320312 L50.1349999,4.28320312 C50.4865641,3.6191373 51.0510116,3.28710938 51.8283592,3.28710938 C52.5900818,3.28710938 53.1808962,3.53222411 53.6008202,4.02246094 C54.0207442,4.51269776 54.230703,5.19530813 54.230703,6.0703125 C54.230703,7.01172346 53.9650807,7.75488009 53.433828,8.29980469 C52.9025753,8.84472929 52.1603953,9.1171875 51.2072655,9.1171875 C50.1955417,9.1171875 49.404534,8.78906578 48.8342186,8.1328125 C48.2639033,7.47655922 47.9787499,6.55859965 47.9787499,5.37890625 Z M51.1545311,7.28320312 C51.4006261,7.28320312 51.6008194,7.19043062 51.7551171,7.00488281 C51.9094147,6.81933501 51.9865624,6.52343953 51.9865624,6.1171875 C51.9865624,5.42187152 51.7170338,5.07421875 51.1779686,5.07421875 C50.9123423,5.07421875 50.6965241,5.1640616 50.5305077,5.34375 C50.3644912,5.5234384 50.2814842,5.74218621 50.2814842,6 C50.2814842,6.37500187 50.3615616,6.68261599 50.5217186,6.92285156 C50.6818757,7.16308714 50.8928111,7.28320312 51.1545311,7.28320312 Z M62.5040624,9 L56.2872655,9 L56.2872655,7.4765625 L58.3790624,5.36132812 C58.9767217,4.736325 59.3673427,4.30957146 59.5509374,4.08105469 C59.7345321,3.85253792 59.8624605,3.65625082 59.9347265,3.4921875 C60.0069925,3.32812418 60.0431249,3.1562509 60.0431249,2.9765625 C60.0431249,2.75390514 59.97086,2.57812564 59.826328,2.44921875 C59.6817961,2.32031186 59.4786731,2.25585938 59.216953,2.25585938 C58.9474204,2.25585938 58.6749622,2.33300704 58.3995702,2.48730469 C58.1241782,2.64160233 57.8126579,2.86913912 57.4649999,3.16992188 L56.1935155,1.68164062 C56.634924,1.2871074 57.006014,1.00488366 57.3067968,0.834960938 C57.6075795,0.665038213 57.9347247,0.535156699 58.2882421,0.4453125 C58.6417595,0.355468301 59.0392165,0.310546875 59.4806249,0.310546875 C60.0353152,0.310546875 60.5304274,0.408202148 60.9659765,0.603515625 C61.4015255,0.798829102 61.7394128,1.07714663 61.9796484,1.43847656 C62.2198839,1.79980649 62.3399999,2.20507588 62.3399999,2.65429688 C62.3399999,2.99023605 62.2980081,3.30077982 62.2140234,3.5859375 C62.1300386,3.87109518 62.000157,4.15136581 61.8243749,4.42675781 C61.6485928,4.70214981 61.4151967,4.99218598 61.1241796,5.296875 C60.8331625,5.60156402 60.2130515,6.17968324 59.263828,7.03125 L59.263828,7.08984375 L62.5040624,7.08984375 L62.5040624,9 Z M66.2715625,3.01171875 C66.2715625,3.46093975 66.3086715,3.78515525 66.3828906,3.984375 C66.4571097,4.18359475 66.5684367,4.28320312 66.716875,4.28320312 C66.8653132,4.28320312 66.9756637,4.18554785 67.0479296,3.99023438 C67.1201956,3.7949209 67.1563281,3.46875229 67.1563281,3.01171875 C67.1563281,2.56249775 67.1201956,2.23828225 67.0479296,2.0390625 C66.9756637,1.83984275 66.8653132,1.74023438 66.716875,1.74023438 C66.5645304,1.74023438 66.4522269,1.84179586 66.3799609,2.04492188 C66.3076949,2.24804789 66.2715625,2.57031029 66.2715625,3.01171875 Z M68.9258593,2.98828125 C68.9258593,3.84766055 68.7325019,4.51269296 68.3457812,4.98339844 C67.9590605,5.45410392 67.4082848,5.68945312 66.6934375,5.68945312 C66.0215591,5.68945312 65.4893379,5.44629149 65.0967578,4.95996094 C64.7041777,4.47363038 64.5078906,3.81641039 64.5078906,2.98828125 C64.5078906,2.12890195 64.6992949,1.46777575 65.0821093,1.00488281 C65.4649237,0.541989873 66.0020278,0.310546875 66.6934375,0.310546875 C67.3770346,0.310546875 67.9199979,0.550778848 68.3223437,1.03125 C68.7246895,1.51172115 68.9258593,2.16405838 68.9258593,2.98828125 Z M73.1973437,0.43359375 L68.4453906,9 L66.7051562,9 L71.4571093,0.43359375 L73.1973437,0.43359375 Z M72.7871875,6.421875 C72.7871875,6.871096 72.8242965,7.1953115 72.8985156,7.39453125 C72.9727347,7.593751 73.0840617,7.69335938 73.2325,7.69335938 C73.4004695,7.69335938 73.5166793,7.57910271 73.5811328,7.35058594 C73.6455862,7.12206917 73.6778125,6.81250195 73.6778125,6.421875 C73.6778125,6.03124805 73.6455862,5.72168083 73.5811328,5.49316406 C73.5166793,5.26464729 73.4004695,5.15039062 73.2325,5.15039062 C73.0801554,5.15039062 72.9678519,5.25195211 72.8955859,5.45507812 C72.8233199,5.65820414 72.7871875,5.98046654 72.7871875,6.421875 Z M75.4414843,6.3984375 C75.4414843,7.25391053 75.2471503,7.91698983 74.8584765,8.38769531 C74.4698027,8.85840079 73.9200035,9.09375 73.2090625,9.09375 C72.5371841,9.09375 72.0049629,8.85058837 71.6123828,8.36425781 C71.2198027,7.87792726 71.0235156,7.22266037 71.0235156,6.3984375 C71.0235156,5.5390582 71.2149199,4.877932 71.5977343,4.41503906 C71.9805487,3.95214612 72.5176528,3.72070312 73.2090625,3.72070312 C73.8926596,3.72070312 74.4356229,3.9609351 74.8379687,4.44140625 C75.2403145,4.9218774 75.4414843,5.57421463 75.4414843,6.3984375 Z" id="a:active" fill="#2A6AD4"></path>
                <g id="Cursor/Hand/Pointing" transform="translate(76.000000, 1.000000)">
                    <g id="pointing" filter="url(#filter-1)">
                        <path d="M3.27,12.28 C2.99,11.92 2.64,11.19 2.03,10.28 C1.68,9.78 0.82,8.83 0.56,8.34 C0.372571391,8.04223059 0.318185191,7.67965592 0.41,7.34 C0.566959969,6.69420883 1.17956117,6.26581639 1.84,6.34 C2.3508012,6.44261082 2.82022287,6.69296904 3.19,7.06 C3.44818056,7.30317315 3.68566746,7.56741914 3.9,7.85 C4.06,8.05 4.1,8.13 4.28,8.36 C4.46,8.59 4.58,8.82 4.49,8.48 C4.42,7.98 4.3,7.14 4.13,6.39 C4,5.82 3.97,5.73 3.85,5.3 C3.73,4.87 3.66,4.51 3.53,4.02 C3.41116675,3.5385718 3.31770464,3.05123369 3.25,2.56 C3.12395297,1.93170405 3.21565432,1.27921373 3.51,0.71 C3.85939302,0.381369522 4.37193038,0.294632431 4.81,0.49 C5.25059657,0.815336248 5.57910137,1.2696514 5.75,1.79 C6.01206519,2.43038854 6.18696098,3.10306465 6.27,3.79 C6.43,4.79 6.74,6.25 6.75,6.55 C6.75,6.18 6.68,5.4 6.75,5.05 C6.81935301,4.68512412 7.07295842,4.3823117 7.42,4.25 C7.71780915,4.15862519 8.03284549,4.13807935 8.34,4.19 C8.65003669,4.25481591 8.92466387,4.43314524 9.11,4.69 C9.34168097,5.27339299 9.47025898,5.89259761 9.49,6.52 C9.51677857,5.97058648 9.61081334,5.42652817 9.77,4.9 C9.93710411,4.66454921 10.1811322,4.49479052 10.46,4.42 C10.7905931,4.35955512 11.1294069,4.35955512 11.46,4.42 C11.7310945,4.51063084 11.968241,4.68151586 12.14,4.91 C12.3517705,5.44034596 12.4799623,6.00034169 12.52,6.57 C12.52,6.71 12.59,6.18 12.81,5.83 C12.924325,5.49059769 13.2110346,5.23796868 13.5621281,5.16727587 C13.9132216,5.09658306 14.2753596,5.21856637 14.5121281,5.48727587 C14.7488967,5.75598537 14.824325,6.13059769 14.71,6.47 C14.71,7.12 14.71,7.09 14.71,7.53 C14.71,7.97 14.71,8.36 14.71,8.73 C14.6735613,9.31517926 14.5933368,9.89680669 14.47,10.47 C14.2959749,10.9771188 14.0537528,11.4581987 13.75,11.9 C13.2644478,12.4399641 12.8632544,13.0501826 12.56,13.71 C12.4847582,14.0378036 12.4511598,14.3737882 12.46,14.71 C12.4589965,15.020633 12.499351,15.3300173 12.58,15.63 C12.1711391,15.6732223 11.7588609,15.6732223 11.35,15.63 C10.96,15.57 10.48,14.79 10.35,14.55 C10.2856779,14.4211326 10.1540282,14.3397056 10.01,14.3397056 C9.86597177,14.3397056 9.73432211,14.4211326 9.67,14.55 C9.45,14.93 8.96,15.62 8.62,15.66 C7.95,15.74 6.57,15.66 5.48,15.66 C5.48,15.66 5.66,14.66 5.25,14.3 C4.84,13.94 4.42,13.52 4.11,13.24 L3.27,12.28 Z" id="Shape" fill="#FFFFFF" fill-rule="nonzero"></path>
                        <path d="M3.27,12.28 C2.99,11.92 2.64,11.19 2.03,10.28 C1.68,9.78 0.82,8.83 0.56,8.34 C0.372571391,8.04223059 0.318185191,7.67965592 0.41,7.34 C0.566959969,6.69420883 1.17956117,6.26581639 1.84,6.34 C2.3508012,6.44261082 2.82022287,6.69296904 3.19,7.06 C3.44818056,7.30317315 3.68566746,7.56741914 3.9,7.85 C4.06,8.05 4.1,8.13 4.28,8.36 C4.46,8.59 4.58,8.82 4.49,8.48 C4.42,7.98 4.3,7.14 4.13,6.39 C4,5.82 3.97,5.73 3.85,5.3 C3.73,4.87 3.66,4.51 3.53,4.02 C3.41116675,3.5385718 3.31770464,3.05123369 3.25,2.56 C3.12395297,1.93170405 3.21565432,1.27921373 3.51,0.71 C3.85939302,0.381369522 4.37193038,0.294632431 4.81,0.49 C5.25059657,0.815336248 5.57910137,1.2696514 5.75,1.79 C6.01206519,2.43038854 6.18696098,3.10306465 6.27,3.79 C6.43,4.79 6.74,6.25 6.75,6.55 C6.75,6.18 6.68,5.4 6.75,5.05 C6.81935301,4.68512412 7.07295842,4.3823117 7.42,4.25 C7.71780915,4.15862519 8.03284549,4.13807935 8.34,4.19 C8.65003669,4.25481591 8.92466387,4.43314524 9.11,4.69 C9.34168097,5.27339299 9.47025898,5.89259761 9.49,6.52 C9.51677857,5.97058648 9.61081334,5.42652817 9.77,4.9 C9.93710411,4.66454921 10.1811322,4.49479052 10.46,4.42 C10.7905931,4.35955512 11.1294069,4.35955512 11.46,4.42 C11.7310945,4.51063084 11.968241,4.68151586 12.14,4.91 C12.3517705,5.44034596 12.4799623,6.00034169 12.52,6.57 C12.52,6.71 12.59,6.18 12.81,5.83 C12.924325,5.49059769 13.2110346,5.23796868 13.5621281,5.16727587 C13.9132216,5.09658306 14.2753596,5.21856637 14.5121281,5.48727587 C14.7488967,5.75598537 14.824325,6.13059769 14.71,6.47 C14.71,7.12 14.71,7.09 14.71,7.53 C14.71,7.97 14.71,8.36 14.71,8.73 C14.6735613,9.31517926 14.5933368,9.89680669 14.47,10.47 C14.2959749,10.9771188 14.0537528,11.4581987 13.75,11.9 C13.2644478,12.4399641 12.8632544,13.0501826 12.56,13.71 C12.4847582,14.0378036 12.4511598,14.3737882 12.46,14.71 C12.4589965,15.020633 12.499351,15.3300173 12.58,15.63 C12.1711391,15.6732223 11.7588609,15.6732223 11.35,15.63 C10.96,15.57 10.48,14.79 10.35,14.55 C10.2856779,14.4211326 10.1540282,14.3397056 10.01,14.3397056 C9.86597177,14.3397056 9.73432211,14.4211326 9.67,14.55 C9.45,14.93 8.96,15.62 8.62,15.66 C7.95,15.74 6.57,15.66 5.48,15.66 C5.48,15.66 5.66,14.66 5.25,14.3 C4.84,13.94 4.42,13.52 4.11,13.24 L3.27,12.28 Z" id="Shape" stroke="#000000" stroke-width="0.75" stroke-linecap="round" stroke-linejoin="round"></path>
                        <path d="M11.75,12.8258906 L11.75,9.37410925 C11.75,9.16749441 11.5821068,9 11.375,9 C11.1678932,9 11,9.16749441 11,9.37410925 L11,12.8258906 C11,13.0325054 11.1678932,13.1999998 11.375,13.1999998 C11.5821068,13.1999998 11.75,13.0325054 11.75,12.8258906 Z" id="Shape" fill="#000000" fill-rule="nonzero"></path>
                        <path d="M9.76999391,12.8246259 L9.74999391,9.37107174 C9.74880023,9.16494995 9.57994213,8.99881831 9.37283879,9.00000633 C9.16573545,9.00119435 8.99881268,9.16925216 9.00000636,9.37537395 L9.02000636,12.8289281 C9.02120004,13.0350499 9.19005814,13.2011815 9.39716148,13.1999935 C9.60426482,13.1988055 9.77118758,13.0307477 9.76999391,12.8246259 Z" id="Shape" fill="#000000" fill-rule="nonzero"></path>
                        <path d="M7.00000651,9.37899137 L7.02000651,12.8254025 C7.02121411,13.0334966 7.19008343,13.2012066 7.39718669,13.1999933 C7.60428995,13.1987799 7.77120136,13.0291026 7.76999376,12.8210084 L7.74999376,9.37459734 C7.74878616,9.16650318 7.57991685,8.99879317 7.37281359,9.00000654 C7.16571032,9.00121992 6.99879891,9.17089721 7.00000651,9.37899137 Z" id="Shape" fill="#000000" fill-rule="nonzero"></path>
                    </g>
                </g>
            </g>
        </g>
    </g>
</svg>