<?xml version="1.0" encoding="UTF-8"?>
<svg width="76px" height="10px" viewBox="0 0 76 10" version="1.1" xmlns="http://www.w3.org/2000/svg" xmlns:xlink="http://www.w3.org/1999/xlink">
    <!-- Generator: Sketch 51.2 (57519) - http://www.bohemiancoding.com/sketch -->
    <title>a:active</title>
    <desc>Created with Sketch.</desc>
    <defs></defs>
    <g id="Library" stroke="none" stroke-width="1" fill="none" fill-rule="evenodd">
        <g id="Components" transform="translate(-687.000000, -730.000000)" fill="#9B9B9B">
            <path d="M693.658984,739 L687.442187,739 L687.442187,737.476562 L689.533984,735.361328 C690.131643,734.736325 690.522264,734.309571 690.705859,734.081055 C690.889454,733.852538 691.017382,733.656251 691.089648,733.492188 C691.161914,733.328124 691.198046,733.156251 691.198046,732.976562 C691.198046,732.753905 691.125782,732.578126 690.98125,732.449219 C690.836718,732.320312 690.633595,732.255859 690.371875,732.255859 C690.102342,732.255859 689.829884,732.333007 689.554492,732.487305 C689.2791,732.641602 688.967579,732.869139 688.619921,733.169922 L687.348437,731.681641 C687.789846,731.287107 688.160936,731.004884 688.461718,730.834961 C688.762501,730.665038 689.089646,730.535157 689.443164,730.445312 C689.796681,730.355468 690.194138,730.310547 690.635546,730.310547 C691.190237,730.310547 691.685349,730.408202 692.120898,730.603516 C692.556447,730.798829 692.894334,731.077147 693.13457,731.438477 C693.374805,731.799806 693.494921,732.205076 693.494921,732.654297 C693.494921,732.990236 693.45293,733.30078 693.368945,733.585938 C693.28496,733.871095 693.155079,734.151366 692.979296,734.426758 C692.803514,734.70215 692.570118,734.992186 692.279101,735.296875 C691.988084,735.601564 691.367973,736.179683 690.41875,737.03125 L690.41875,737.089844 L693.658984,737.089844 L693.658984,739 Z M702.05539,734.728516 C702.05539,736.244148 701.801487,737.354489 701.293671,738.05957 C700.785856,738.764652 700.00852,739.117188 698.96164,739.117188 C697.938198,739.117188 697.166721,738.749027 696.647187,738.012695 C696.127653,737.276364 695.86789,736.181648 695.86789,734.728516 C695.86789,733.205071 696.121794,732.087894 696.629609,731.376953 C697.137424,730.666012 697.91476,730.310547 698.96164,730.310547 C699.981177,730.310547 700.751677,730.68066 701.273164,731.420898 C701.794651,732.161137 702.05539,733.263665 702.05539,734.728516 Z M698.170625,734.728516 C698.170625,735.69727 698.231171,736.363279 698.352265,736.726562 C698.47336,737.089846 698.676483,737.271484 698.96164,737.271484 C699.250704,737.271484 699.454804,737.083986 699.573945,736.708984 C699.693086,736.333983 699.752656,735.673833 699.752656,734.728516 C699.752656,733.779292 699.69211,733.11426 699.571015,732.733398 C699.449921,732.352537 699.246798,732.162109 698.96164,732.162109 C698.676483,732.162109 698.47336,732.345701 698.352265,732.712891 C698.231171,733.08008 698.170625,733.751948 698.170625,734.728516 Z M710.381484,739 L704.164687,739 L704.164687,737.476562 L706.256484,735.361328 C706.854143,734.736325 707.244764,734.309571 707.428359,734.081055 C707.611954,733.852538 707.739882,733.656251 707.812148,733.492188 C707.884414,733.328124 707.920547,733.156251 707.920547,732.976562 C707.920547,732.753905 707.848282,732.578126 707.70375,732.449219 C707.559218,732.320312 707.356095,732.255859 707.094375,732.255859 C706.824842,732.255859 706.552384,732.333007 706.276992,732.487305 C706.0016,732.641602 705.69008,732.869139 705.342422,733.169922 L704.070937,731.681641 C704.512346,731.287107 704.883436,731.004884 705.184218,730.834961 C705.485001,730.665038 705.812146,730.535157 706.165664,730.445312 C706.519181,730.355468 706.916638,730.310547 707.358047,730.310547 C707.912737,730.310547 708.407849,730.408202 708.843398,730.603516 C709.278947,730.798829 709.616834,731.077147 709.85707,731.438477 C710.097306,731.799806 710.217422,732.205076 710.217422,732.654297 C710.217422,732.990236 710.17543,733.30078 710.091445,733.585938 C710.00746,733.871095 709.877579,734.151366 709.701797,734.426758 C709.526014,734.70215 709.292618,734.992186 709.001601,735.296875 C708.710584,735.601564 708.090473,736.179683 707.14125,737.03125 L707.14125,737.089844 L710.381484,737.089844 L710.381484,739 Z M718.742734,739 L712.525937,739 L712.525937,737.476562 L714.617734,735.361328 C715.215393,734.736325 715.606014,734.309571 715.789609,734.081055 C715.973204,733.852538 716.101132,733.656251 716.173398,733.492188 C716.245664,733.328124 716.281797,733.156251 716.281797,732.976562 C716.281797,732.753905 716.209532,732.578126 716.065,732.449219 C715.920468,732.320312 715.717345,732.255859 715.455625,732.255859 C715.186092,732.255859 714.913634,732.333007 714.638242,732.487305 C714.36285,732.641602 714.05133,732.869139 713.703672,733.169922 L712.432187,731.681641 C712.873596,731.287107 713.244686,731.004884 713.545468,730.834961 C713.846251,730.665038 714.173396,730.535157 714.526914,730.445312 C714.880431,730.355468 715.277888,730.310547 715.719297,730.310547 C716.273987,730.310547 716.769099,730.408202 717.204648,730.603516 C717.640197,730.798829 717.978084,731.077147 718.21832,731.438477 C718.458556,731.799806 718.578672,732.205076 718.578672,732.654297 C718.578672,732.990236 718.53668,733.30078 718.452695,733.585938 C718.36871,733.871095 718.238829,734.151366 718.063047,734.426758 C717.887264,734.70215 717.653868,734.992186 717.362851,735.296875 C717.071834,735.601564 716.451723,736.179683 715.5025,737.03125 L715.5025,737.089844 L718.742734,737.089844 L718.742734,739 Z M725.228906,736.697266 L725.228906,734.869141 L728.539453,734.869141 L728.539453,736.697266 L725.228906,736.697266 Z M734.97875,735.378906 C734.97875,734.183588 735.149647,733.215824 735.491445,732.475586 C735.833244,731.735348 736.337145,731.189455 737.003164,730.837891 C737.669183,730.486326 738.490464,730.310547 739.467031,730.310547 C739.814689,730.310547 740.220935,730.34375 740.685781,730.410156 L740.685781,732.220703 C740.295154,732.146484 739.87133,732.109375 739.414297,732.109375 C738.640855,732.109375 738.064689,732.279295 737.685781,732.619141 C737.306873,732.958986 737.099844,733.513668 737.064687,734.283203 L737.135,734.283203 C737.486564,733.619137 738.051012,733.287109 738.828359,733.287109 C739.590082,733.287109 740.180896,733.532224 740.60082,734.022461 C741.020744,734.512698 741.230703,735.195308 741.230703,736.070312 C741.230703,737.011723 740.965081,737.75488 740.433828,738.299805 C739.902575,738.844729 739.160395,739.117188 738.207265,739.117188 C737.195542,739.117188 736.404534,738.789066 735.834219,738.132812 C735.263903,737.476559 734.97875,736.5586 734.97875,735.378906 Z M738.154531,737.283203 C738.400626,737.283203 738.600819,737.190431 738.755117,737.004883 C738.909415,736.819335 738.986562,736.52344 738.986562,736.117188 C738.986562,735.421872 738.717034,735.074219 738.177969,735.074219 C737.912342,735.074219 737.696524,735.164062 737.530508,735.34375 C737.364491,735.523438 737.281484,735.742186 737.281484,736 C737.281484,736.375002 737.361562,736.682616 737.521719,736.922852 C737.681876,737.163087 737.892811,737.283203 738.154531,737.283203 Z M749.504062,739 L743.287266,739 L743.287266,737.476562 L745.379062,735.361328 C745.976722,734.736325 746.367343,734.309571 746.550937,734.081055 C746.734532,733.852538 746.86246,733.656251 746.934726,733.492188 C747.006992,733.328124 747.043125,733.156251 747.043125,732.976562 C747.043125,732.753905 746.97086,732.578126 746.826328,732.449219 C746.681796,732.320312 746.478673,732.255859 746.216953,732.255859 C745.94742,732.255859 745.674962,732.333007 745.39957,732.487305 C745.124178,732.641602 744.812658,732.869139 744.465,733.169922 L743.193516,731.681641 C743.634924,731.287107 744.006014,731.004884 744.306797,730.834961 C744.60758,730.665038 744.934725,730.535157 745.288242,730.445312 C745.641759,730.355468 746.039216,730.310547 746.480625,730.310547 C747.035315,730.310547 747.530427,730.408202 747.965976,730.603516 C748.401526,730.798829 748.739413,731.077147 748.979648,731.438477 C749.219884,731.799806 749.34,732.205076 749.34,732.654297 C749.34,732.990236 749.298008,733.30078 749.214023,733.585938 C749.130039,733.871095 749.000157,734.151366 748.824375,734.426758 C748.648593,734.70215 748.415197,734.992186 748.12418,735.296875 C747.833163,735.601564 747.213052,736.179683 746.263828,737.03125 L746.263828,737.089844 L749.504062,737.089844 L749.504062,739 Z M753.271562,733.011719 C753.271562,733.46094 753.308671,733.785155 753.382891,733.984375 C753.45711,734.183595 753.568437,734.283203 753.716875,734.283203 C753.865313,734.283203 753.975664,734.185548 754.04793,733.990234 C754.120196,733.794921 754.156328,733.468752 754.156328,733.011719 C754.156328,732.562498 754.120196,732.238282 754.04793,732.039062 C753.975664,731.839843 753.865313,731.740234 753.716875,731.740234 C753.56453,731.740234 753.452227,731.841796 753.379961,732.044922 C753.307695,732.248048 753.271562,732.57031 753.271562,733.011719 Z M755.925859,732.988281 C755.925859,733.847661 755.732502,734.512693 755.345781,734.983398 C754.959061,735.454104 754.408285,735.689453 753.693437,735.689453 C753.021559,735.689453 752.489338,735.446291 752.096758,734.959961 C751.704178,734.47363 751.507891,733.81641 751.507891,732.988281 C751.507891,732.128902 751.699295,731.467776 752.082109,731.004883 C752.464924,730.54199 753.002028,730.310547 753.693437,730.310547 C754.377035,730.310547 754.919998,730.550779 755.322344,731.03125 C755.724689,731.511721 755.925859,732.164058 755.925859,732.988281 Z M760.197344,730.433594 L755.445391,739 L753.705156,739 L758.457109,730.433594 L760.197344,730.433594 Z M759.787187,736.421875 C759.787187,736.871096 759.824296,737.195312 759.898516,737.394531 C759.972735,737.593751 760.084062,737.693359 760.2325,737.693359 C760.40047,737.693359 760.516679,737.579103 760.581133,737.350586 C760.645586,737.122069 760.677812,736.812502 760.677812,736.421875 C760.677812,736.031248 760.645586,735.721681 760.581133,735.493164 C760.516679,735.264647 760.40047,735.150391 760.2325,735.150391 C760.080155,735.150391 759.967852,735.251952 759.895586,735.455078 C759.82332,735.658204 759.787187,735.980467 759.787187,736.421875 Z M762.441484,736.398438 C762.441484,737.253911 762.24715,737.91699 761.858477,738.387695 C761.469803,738.858401 760.920004,739.09375 760.209062,739.09375 C759.537184,739.09375 759.004963,738.850588 758.612383,738.364258 C758.219803,737.877927 758.023516,737.22266 758.023516,736.398438 C758.023516,735.539058 758.21492,734.877932 758.597734,734.415039 C758.980549,733.952146 759.517653,733.720703 760.209062,733.720703 C760.89266,733.720703 761.435623,733.960935 761.837969,734.441406 C762.240314,734.921877 762.441484,735.574215 762.441484,736.398438 Z" id="a:active"></path>
        </g>
    </g>
</svg>