<?xml version="1.0" encoding="UTF-8"?>
<svg width="1107px" height="1024px" viewBox="0 0 1107 1024" version="1.1" xmlns="http://www.w3.org/2000/svg" xmlns:xlink="http://www.w3.org/1999/xlink">
    <!-- Generator: Sketch 51.2 (57519) - http://www.bohemiancoding.com/sketch -->
    <title>menu</title>
    <desc>Created with Sketch.</desc>
    <defs>
        <rect id="path-1" x="0" y="0" width="1366" height="1024"></rect>
        <filter x="-1.0%" y="-0.8%" width="101.3%" height="101.7%" filterUnits="objectBoundingBox" id="filter-2">
            <feOffset dx="-5" dy="0" in="SourceAlpha" result="shadowOffsetOuter1"></feOffset>
            <feGaussianBlur stdDeviation="2" in="shadowOffsetOuter1" result="shadowBlurOuter1"></feGaussianBlur>
            <feColorMatrix values="0 0 0 0 0   0 0 0 0 0   0 0 0 0 0  0 0 0 0.1 0" type="matrix" in="shadowBlurOuter1"></feColorMatrix>
        </filter>
        <rect id="path-3" x="0" y="0" width="290" height="1024"></rect>
        <filter x="-4.7%" y="-0.8%" width="106.2%" height="101.7%" filterUnits="objectBoundingBox" id="filter-4">
            <feOffset dx="-5" dy="0" in="SourceAlpha" result="shadowOffsetOuter1"></feOffset>
            <feGaussianBlur stdDeviation="2" in="shadowOffsetOuter1" result="shadowBlurOuter1"></feGaussianBlur>
            <feColorMatrix values="0 0 0 0 0   0 0 0 0 0   0 0 0 0 0  0 0 0 0.1 0" type="matrix" in="shadowBlurOuter1"></feColorMatrix>
        </filter>
    </defs>
    <g id="Library" stroke="none" stroke-width="1" fill="none" fill-rule="evenodd">
        <g id="Templates" transform="translate(-333.000000, -3531.000000)">
            <g id="Group" transform="translate(333.000000, 3531.000000)">
                <g id="menu">
                    <g>
                        <g id="overlay" opacity="0.3">
                            <g>
                                <use fill="black" fill-opacity="1" filter="url(#filter-2)" xlink:href="#path-1"></use>
                                <use fill="#000000" fill-rule="evenodd" xlink:href="#path-1"></use>
                            </g>
                        </g>
                        <g>
                            <g id="background">
                                <use fill="black" fill-opacity="1" filter="url(#filter-4)" xlink:href="#path-3"></use>
                                <use fill="#FFFFFF" fill-rule="evenodd" xlink:href="#path-3"></use>
                            </g>
                            <text id="copyright" font-family="OpenSans-Semibold, Open Sans" font-size="12" font-weight="500" letter-spacing="-0.3870967" fill="#D8D8D8">
                                <tspan x="20" y="996">2017 All Rights Reserved</tspan>
                            </text>
                            <g id="instagram-icon" transform="translate(114.000000, 944.000000)" fill="#4A90E2">
                                <g id="instagram">
                                    <path d="M8,1.442 C10.136,1.442 10.3893333,1.45 11.2333333,1.48866667 C13.4013333,1.58733333 14.414,2.616 14.5126667,4.768 C14.5513333,5.61133333 14.5586667,5.86466667 14.5586667,8.00066667 C14.5586667,10.1373333 14.5506667,10.39 14.5126667,11.2333333 C14.4133333,13.3833333 13.4033333,14.414 11.2333333,14.5126667 C10.3893333,14.5513333 10.1373333,14.5593333 8,14.5593333 C5.864,14.5593333 5.61066667,14.5513333 4.76733333,14.5126667 C2.594,14.4133333 1.58666667,13.38 1.488,11.2326667 C1.44933333,10.3893333 1.44133333,10.1366667 1.44133333,8 C1.44133333,5.864 1.45,5.61133333 1.488,4.76733333 C1.58733333,2.616 2.59733333,1.58666667 4.76733333,1.488 C5.61133333,1.45 5.864,1.442 8,1.442 Z M8,-1.61907524e-16 C5.82733333,-1.61907524e-16 5.55533333,0.00933333333 4.702,0.048 C1.79666667,0.181333333 0.182,1.79333333 0.0486666667,4.70133333 C0.00933333333,5.55533333 -4.85722573e-16,5.82733333 -4.85722573e-16,8 C-4.85722573e-16,10.1726667 0.00933333333,10.4453333 0.048,11.2986667 C0.181333333,14.204 1.79333333,15.8186667 4.70133333,15.952 C5.55533333,15.9906667 5.82733333,16 8,16 C10.1726667,16 10.4453333,15.9906667 11.2986667,15.952 C14.2013333,15.8186667 15.82,14.2066667 15.9513333,11.2986667 C15.9906667,10.4453333 16,10.1726667 16,8 C16,5.82733333 15.9906667,5.55533333 15.952,4.702 C15.8213333,1.79933333 14.2073333,0.182 11.2993333,0.0486666667 C10.4453333,0.00933333333 10.1726667,-4.85722573e-16 8,-1.61907524e-16 Z M8,3.892 C5.73133333,3.892 3.892,5.73133333 3.892,8 C3.892,10.2686667 5.73133333,12.1086667 8,12.1086667 C10.2686667,12.1086667 12.108,10.2693333 12.108,8 C12.108,5.73133333 10.2686667,3.892 8,3.892 Z M8,10.6666667 C6.52733333,10.6666667 5.33333333,9.47333333 5.33333333,8 C5.33333333,6.52733333 6.52733333,5.33333333 8,5.33333333 C9.47266667,5.33333333 10.6666667,6.52733333 10.6666667,8 C10.6666667,9.47333333 9.47266667,10.6666667 8,10.6666667 Z M12.2706667,2.77 C11.74,2.77 11.31,3.2 11.31,3.73 C11.31,4.26 11.74,4.69 12.2706667,4.69 C12.8006667,4.69 13.23,4.26 13.23,3.73 C13.23,3.2 12.8006667,2.77 12.2706667,2.77 Z" id="Shape" fill-rule="nonzero"></path>
                                </g>
                            </g>
                            <g id="twitter-icon" transform="translate(64.000000, 944.000000)" fill="#4A90E2">
                                <g id="twitter">
                                    <path d="M19.2,2.0456 C18.4936,2.3592 17.7344,2.5704 16.9376,2.6656 C17.7512,2.1784 18.376,1.4064 18.6696,0.4864 C17.9088,0.9376 17.0656,1.2656 16.168,1.4424 C15.4504,0.6768 14.4256,0.1984 13.2928,0.1984 C10.7496,0.1984 8.8808,2.5712 9.4552,5.0344 C6.1824,4.8704 3.28,3.3024 1.3368,0.9192 C0.3048,2.6896 0.8016,5.0056 2.5552,6.1784 C1.9104,6.1576 1.3024,5.9808 0.772,5.6856 C0.7288,7.5104 2.0368,9.2176 3.9312,9.5976 C3.3768,9.748 2.7696,9.7832 2.152,9.6648 C2.6528,11.2296 4.1072,12.368 5.832,12.4 C4.176,13.6984 2.0896,14.2784 -1.77635684e-15,14.032 C1.7432,15.1496 3.8144,15.8016 6.0384,15.8016 C13.352,15.8016 17.484,9.6248 17.2344,4.0848 C18.004,3.5288 18.672,2.8352 19.2,2.0456 Z" id="Shape" fill-rule="nonzero"></path>
                                </g>
                            </g>
                            <g id="facebook-icon" transform="translate(20.000000, 944.000000)" fill="#4A90E2">
                                <g id="facebook">
                                    <path d="M2,5.33333333 L0,5.33333333 L0,8 L2,8 L2,16 L5.33333333,16 L5.33333333,8 L7.76133333,8 L8,5.33333333 L5.33333333,5.33333333 L5.33333333,4.222 C5.33333333,3.58533333 5.46133333,3.33333333 6.07666667,3.33333333 L8,3.33333333 L8,0 L5.46133333,0 C3.064,0 2,1.05533333 2,3.07666667 L2,5.33333333 Z" id="Shape" fill-rule="nonzero"></path>
                                </g>
                            </g>
                            <text id="span" font-family="OpenSans, Open Sans" font-size="12" font-weight="normal" fill="#4A4A4A">
                                <tspan x="20" y="926">Share Flood iQ</tspan>
                            </text>
                            <path d="M0,897 L290,897" id="line" stroke="#979797" opacity="0.200000018" stroke-linecap="square"></path>
                            <g id="report-button---menu" transform="translate(20.000000, 267.000000)">
                                <g id="report-button">
                                    <rect id="button" fill="#EB6E00" x="0" y="0" width="248" height="41" rx="2"></rect>
                                    <text id="a" font-family="OpenSans-Extrabold, Open Sans" font-size="12" font-weight="600" letter-spacing="1.333333" fill="#FFFFFF">
                                        <tspan x="52.7529322" y="23">DOWNLOAD REPORT</tspan>
                                    </text>
                                </g>
                            </g>
                            <path d="M0,243 L290,243" id="line" stroke="#979797" opacity="0.200000018" stroke-linecap="square"></path>
                            <text id="a-span" font-family="OpenSans-Semibold, Open Sans" font-size="14" font-weight="500" letter-spacing="-0.4516128" fill="#616161">
                                <tspan x="20" y="223">Newsletter</tspan>
                            </text>
                            <text id="a-span" font-family="OpenSans-Semibold, Open Sans" font-size="14" font-weight="500" letter-spacing="-0.4516128" fill="#616161">
                                <tspan x="20" y="193">Contact Us</tspan>
                            </text>
                            <path d="M0,164 L290,164" id="line" stroke="#979797" opacity="0.200000018" stroke-linecap="square"></path>
                            <text id="a-span" font-family="OpenSans-Semibold, Open Sans" font-size="14" font-weight="500" letter-spacing="-0.4516128" fill="#616161">
                                <tspan x="19" y="144">SeaLevelRise.org</tspan>
                            </text>
                            <text id="a-span" font-family="OpenSans-Semibold, Open Sans" font-size="14" font-weight="500" letter-spacing="-0.4516128" fill="#616161">
                                <tspan x="20" y="114">Disclaimer</tspan>
                            </text>
                            <text id="a-span" font-family="OpenSans-Semibold, Open Sans" font-size="14" font-weight="500" letter-spacing="-0.4516128" fill="#616161">
                                <tspan x="19" y="84">How We Created Flood iQ </tspan>
                            </text>
                            <path d="M0,57 L290,57" id="line" stroke="#979797" opacity="0.200000018" stroke-linecap="square"></path>
                            <g id="close-icon" transform="translate(249.000000, 20.000000)" stroke="#9B9B9B" stroke-linecap="square">
                                <g id="Group-2">
                                    <g transform="translate(14.000000, 7.000000) rotate(-270.000000) translate(-14.000000, -7.000000) translate(7.000000, 3.000000)" stroke-width="2">
                                        <path d="M0.5,0.5 L7.01920241,7.01920241" id="Line"></path>
                                        <path d="M6.5,0.5 L13.0192024,7.01920241" id="Line" transform="translate(10.000000, 4.000000) scale(-1, 1) translate(-10.000000, -4.000000) "></path>
                                    </g>
                                    <g transform="translate(4.000000, 7.000000) rotate(-270.000000) translate(-4.000000, -7.000000) translate(-3.000000, 3.000000)" stroke-width="2">
                                        <path d="M0.5,0.5 L7.01920241,7.01920241" id="Line"></path>
                                        <path d="M6.5,0.5 L13.0192024,7.01920241" id="Line" transform="translate(10.000000, 4.000000) scale(-1, 1) translate(-10.000000, -4.000000) "></path>
                                    </g>
                                </g>
                            </g>
                            <g id="menu-logo" transform="translate(19.000000, 12.000000)" font-family="ProximaNova-Semibold, Proxima Nova" font-size="24" font-weight="500" letter-spacing="-0.7741935">
                                <text id="logo">
                                    <tspan x="0" y="22" fill="#111F4B">Flood </tspan>
                                    <tspan x="62.242839" y="22" fill="#3D96F7">iQ</tspan>
                                </text>
                            </g>
                        </g>
                    </g>
                </g>
            </g>
        </g>
    </g>
</svg>